<svg width="348" height="726" viewBox="0 0 348 726" fill="none" xmlns="http://www.w3.org/2000/svg">
<g opacity="0.6">
<rect x="1" y="1" width="345.735" height="723.415" rx="47.2966" stroke="#00BB27" stroke-width="2"/>
<path d="M33.8705 32.5132H32.3796V25.416H29.9414V24.3444C30.6247 24.3341 31.1993 24.1581 31.6652 23.8164C32.1311 23.4644 32.421 23.0088 32.5349 22.4497H33.8705V32.5132Z" fill="#FEFFFB"/>
<path d="M37.2937 26.0683L35.7717 25.8819C35.7614 25.7887 35.7562 25.6541 35.7562 25.4781C35.7562 24.5774 36.072 23.8112 36.7035 23.1797C37.3351 22.5378 38.1789 22.2168 39.235 22.2168C40.2806 22.2168 41.1089 22.517 41.7198 23.1175C42.3306 23.7077 42.636 24.4376 42.636 25.3073C42.636 26.5808 42.0045 27.6161 40.7414 28.4133L38.7535 29.6868C38.0391 30.1423 37.6302 30.6134 37.5266 31.1H42.6982V32.5132H35.6475C35.6682 31.6643 35.8597 30.9188 36.2221 30.2769C36.5948 29.635 37.2005 29.0449 38.0391 28.5065L39.7164 27.4194C40.6378 26.8292 41.0986 26.1304 41.0986 25.3228C41.0986 24.8259 40.9329 24.4065 40.6016 24.0649C40.2703 23.7232 39.8044 23.5524 39.2039 23.5524C38.5723 23.5524 38.0909 23.7439 37.7596 24.127C37.4283 24.5101 37.2626 25.007 37.2626 25.6179C37.2626 25.7111 37.273 25.8612 37.2937 26.0683Z" fill="#FEFFFB"/>
<path d="M44.8149 32.2803C44.6078 32.0732 44.5043 31.8196 44.5043 31.5193C44.5043 31.2191 44.6078 30.9654 44.8149 30.7583C45.0219 30.5409 45.2756 30.4322 45.5758 30.4322C45.8761 30.4322 46.1297 30.5409 46.3368 30.7583C46.5542 30.9654 46.6629 31.2191 46.6629 31.5193C46.6629 31.8196 46.5542 32.0732 46.3368 32.2803C46.1297 32.4874 45.8761 32.5909 45.5758 32.5909C45.2756 32.5909 45.0219 32.4874 44.8149 32.2803ZM44.7993 26.8137C44.5923 26.6066 44.4887 26.353 44.4887 26.0527C44.4887 25.7525 44.5923 25.4988 44.7993 25.2918C45.0064 25.0743 45.2601 24.9656 45.5603 24.9656C45.8606 24.9656 46.1142 25.0743 46.3213 25.2918C46.5387 25.4988 46.6474 25.7525 46.6474 26.0527C46.6474 26.353 46.5387 26.6066 46.3213 26.8137C46.1142 27.0208 45.8606 27.1243 45.5603 27.1243C45.2601 27.1243 45.0064 27.0208 44.7993 26.8137Z" fill="#FEFFFB"/>
<path d="M48.3719 29.78L49.8317 29.3451C49.8731 29.9663 50.1009 30.4685 50.515 30.8515C50.9395 31.2346 51.4675 31.4261 52.0991 31.4261C52.7099 31.4261 53.2224 31.2398 53.6366 30.8671C54.0507 30.4943 54.2578 30.0026 54.2578 29.3917C54.2578 28.7291 54.0507 28.2166 53.6366 27.8542C53.2224 27.4919 52.7048 27.3107 52.0836 27.3107C51.3278 27.3107 50.7169 27.554 50.251 28.0406C50.1061 27.9888 49.8679 27.8956 49.5366 27.761C49.2053 27.6264 48.9465 27.5229 48.7601 27.4504L50.0646 22.4497H55.3759V23.8475H51.0741L50.3287 26.7361C50.7739 26.2391 51.4572 25.9906 52.3786 25.9906C53.3829 25.9906 54.2008 26.2909 54.8324 26.8914C55.4743 27.4919 55.7952 28.3046 55.7952 29.3296C55.7952 30.3028 55.4536 31.1207 54.7703 31.7833C54.0869 32.4356 53.1965 32.7617 52.0991 32.7617C51.0637 32.7617 50.1992 32.4718 49.5056 31.892C48.8222 31.3123 48.4443 30.6082 48.3719 29.78Z" fill="#FEFFFB"/>
<path d="M56.8801 30.2459V28.491L61.1974 22.4497H63.294V28.8326H65.0178V30.2459H63.294V32.5132H61.8186V30.2459H56.8801ZM61.8186 28.8326V23.9096L58.2778 28.8326H61.8186Z" fill="#FEFFFB"/>
<rect x="310.531" y="33.0039" width="12.5199" height="6.51036" rx="2.15343" transform="rotate(-90 310.531 33.0039)" fill="#FEFFFB"/>
<path d="M312.926 19.9834L314.967 19.9834C314.794 19.5804 314.392 19.3183 313.946 19.3183C313.501 19.3183 313.099 19.5804 312.926 19.9834Z" fill="#FEFFFB"/>
<path fill-rule="evenodd" clip-rule="evenodd" d="M295.676 23.5082C297.856 23.5083 299.953 24.2949 301.533 25.7054C301.652 25.8143 301.842 25.8129 301.959 25.7023L303.096 24.6245C303.155 24.5684 303.188 24.4924 303.188 24.4133C303.187 24.3343 303.153 24.2586 303.093 24.2032C298.947 20.4713 292.405 20.4713 288.259 24.2032C288.199 24.2586 288.165 24.3342 288.164 24.4133C288.164 24.4923 288.197 24.5683 288.256 24.6245L289.393 25.7023C289.51 25.8131 289.701 25.8144 289.82 25.7054C291.4 24.2948 293.496 23.5082 295.676 23.5082ZM295.673 27.1083C296.863 27.1082 298.01 27.5448 298.892 28.3331C299.011 28.445 299.199 28.4426 299.316 28.3276L300.444 27.2022C300.503 27.1432 300.536 27.0631 300.535 26.9799C300.534 26.8966 300.5 26.8172 300.439 26.7594C297.754 24.2934 293.595 24.2934 290.91 26.7594C290.849 26.8172 290.815 26.8967 290.814 26.9799C290.813 27.0632 290.846 27.1433 290.906 27.2022L292.034 28.3276C292.15 28.4426 292.338 28.445 292.457 28.3331C293.338 27.5453 294.485 27.1088 295.673 27.1083ZM297.886 29.4914C297.888 29.5812 297.855 29.6679 297.796 29.7308L295.889 31.8249C295.833 31.8864 295.756 31.921 295.677 31.921C295.597 31.921 295.521 31.8864 295.465 31.8249L293.557 29.7308C293.498 29.6678 293.466 29.5812 293.467 29.4913C293.469 29.4014 293.505 29.3163 293.566 29.2561C294.785 28.1352 296.569 28.1352 297.787 29.2561C297.849 29.3164 297.884 29.4015 297.886 29.4914Z" fill="#FEFFFB"/>
<path fill-rule="evenodd" clip-rule="evenodd" d="M282.155 22.3902C282.155 21.8457 281.744 21.4043 281.237 21.4043H280.319C279.812 21.4043 279.401 21.8457 279.401 22.3902V30.9351C279.401 31.4796 279.812 31.921 280.319 31.921H281.237C281.744 31.921 282.155 31.4796 282.155 30.9351V22.3902ZM275.756 23.5076H276.674C277.182 23.5076 277.593 23.9597 277.593 24.5172V30.9114C277.593 31.469 277.182 31.921 276.674 31.921H275.756C275.249 31.921 274.838 31.469 274.838 30.9114V24.5172C274.838 23.9597 275.249 23.5076 275.756 23.5076ZM272.028 25.7863H271.11C270.603 25.7863 270.192 26.244 270.192 26.8087V30.8986C270.192 31.4633 270.603 31.921 271.11 31.921H272.028C272.535 31.921 272.946 31.4633 272.946 30.8986V26.8087C272.946 26.244 272.535 25.7863 272.028 25.7863ZM267.465 27.8896H266.547C266.04 27.8896 265.629 28.3408 265.629 28.8975V30.9132C265.629 31.4698 266.04 31.921 266.547 31.921H267.465C267.972 31.921 268.383 31.4698 268.383 30.9132V28.8975C268.383 28.3408 267.972 27.8896 267.465 27.8896Z" fill="#FEFFFB"/>
<path d="M108.184 716.238H239.55" stroke="#FEFFFB" stroke-width="1.93186" stroke-linecap="round"/>
</g>
</svg>
