<svg width="178" height="45" viewBox="0 0 178 45" fill="none" xmlns="http://www.w3.org/2000/svg">
<g clip-path="url(#clip0_532_1664)">
<path d="M43.274 36.5579C42.2645 40.1236 41.3298 41.625 37.7656 42.801C29.9391 45.3909 14.872 45.3033 7.05797 42.826C3.00766 41.5374 2.21006 39.473 1.23798 35.5069C-0.606468 27.875 -0.481843 13.8373 2.23498 6.46816C3.25691 3.70317 3.92988 3.04007 6.8461 2.08921C9.61278 1.2009 15.6695 0.262554 18.6107 0.0498616C22.8729 -0.25041 38.1519 0.788029 41.1055 3.64061C41.5292 4.05348 42.1897 5.36717 42.4265 5.9552C45.2555 13.1242 45.3677 29.1387 43.274 36.5579Z" fill="#6D6D6D"/>
<path d="M30.8692 35.062C31.5707 34.1782 31.6106 32.7413 31.7859 31.6275C32.5432 25.6603 33.5184 20.9207 33.9091 14.8605C33.9702 14.0619 33.8187 11.8187 32.7027 12.9093C31.8896 13.7544 30.8214 15.7908 29.9604 17.4474C29.2749 18.6827 28.305 21.3006 26.6017 20.0524C26.1101 19.6802 25.7301 19.1246 25.3873 18.6129C24.4706 17.2044 23.5937 15.7598 22.7089 14.372C20.4901 10.754 18.343 8.92431 15.7416 13.5554C14.979 14.7855 14.0064 15.0207 12.9595 13.9379C12.0454 13.054 11.4343 11.9169 10.4644 11.2192C9.32176 10.4387 9.0268 11.4363 9.40679 12.5785C11.3253 17.1657 13.3076 25.0013 15.8665 29.1207C16.3315 29.865 17.1021 30.5808 18.0853 30.2371C19.483 29.7952 20.2164 27.7872 21.8213 27.8286C22.5813 27.9242 23.2084 28.8571 23.7797 29.5213C25.2385 31.2166 26.5858 32.8214 28.1641 34.4289C28.8444 35.0879 30.0295 35.9821 30.8453 35.0853L30.8665 35.062H30.8692Z" fill="white"/>
</g>
<path d="M132.145 17.8308C134.665 17.831 136.667 18.7958 138.034 20.4099C139.398 22.0204 140.119 24.2622 140.119 26.7986C140.119 29.391 139.31 31.6585 137.882 33.28C136.452 34.9034 134.41 35.8687 131.974 35.8689C129.887 35.8689 128.263 35.1412 127.31 34.158V41.9656H122.355V18.2078H127.172V19.8367C128.121 18.7041 129.895 17.8309 132.145 17.8308ZM127.109 41.7664H127.11V33.616L127.109 33.615V41.7664ZM94.8564 17.6941C97.5028 17.6942 99.6407 18.5395 101.115 20.0935C102.588 21.6463 103.379 23.8845 103.379 26.6277C103.379 26.959 103.361 27.2974 103.344 27.5603C103.335 27.692 103.327 27.8063 103.32 27.8904C103.317 27.9323 103.314 27.9663 103.312 27.9919C103.311 28.0197 103.311 28.0311 103.311 28.032V28.2312H91.2695C91.4709 30.2302 93.2065 31.6687 95.3018 31.6687C96.3288 31.6686 97.1082 31.4119 97.6934 30.9871C98.2791 30.5617 98.6866 29.9558 98.9502 29.2312L99.0146 29.0544L99.1943 29.1082L102.996 30.238L103.187 30.2947L103.131 30.4851C102.25 33.4804 99.5007 35.9711 95.2676 35.9714C90.5404 35.9714 86.3683 32.5667 86.3682 26.7644C86.3682 21.2785 90.4292 17.6941 94.8564 17.6941ZM112.076 17.6941C114.519 17.6943 116.172 18.4721 117.24 19.5007C118.305 20.5253 118.776 21.7858 118.884 22.7341L118.904 22.9119L118.73 22.9509L114.928 23.8074L114.717 23.8552L114.687 23.6404C114.623 23.1764 114.423 22.6545 114.023 22.2507C113.628 21.8513 113.021 21.5517 112.11 21.5515C110.97 21.5515 110.151 22.2275 110.151 23.031C110.151 23.3867 110.283 23.6676 110.513 23.8826C110.747 24.1014 111.092 24.2606 111.529 24.3416L111.535 24.3425V24.3435L113.931 24.8562C115.622 25.2051 116.914 25.8979 117.783 26.8337C118.654 27.7714 119.091 28.9428 119.091 30.2234C119.091 31.6445 118.54 33.0846 117.416 34.1687C116.29 35.2542 114.602 35.9713 112.35 35.9714C109.769 35.9714 108.013 35.1331 106.876 34.032C105.744 32.9351 105.237 31.5889 105.13 30.5876L105.111 30.4099L105.285 30.3718L109.19 29.5154L109.414 29.4666L109.432 29.6941C109.48 30.318 109.735 30.912 110.204 31.3494C110.672 31.7851 111.365 32.0798 112.315 32.0798C113.035 32.0797 113.543 31.8915 113.866 31.6208C114.187 31.352 114.343 30.9888 114.343 30.6003C114.343 30.2739 114.233 29.9843 113.983 29.7419C113.729 29.4947 113.314 29.2836 112.686 29.1511L112.682 29.1501L110.457 28.6365C108.8 28.2701 107.577 27.5855 106.768 26.6736C105.957 25.76 105.574 24.6328 105.574 23.408C105.574 20.2632 108.357 17.6941 112.076 17.6941ZM150.548 17.6941C153.194 17.6942 155.332 18.5396 156.807 20.0935C158.28 21.6463 159.07 23.8844 159.07 26.6277C159.07 26.9589 159.053 27.2974 159.036 27.5603C159.027 27.692 159.019 27.8063 159.013 27.8904C159.009 27.9323 159.007 27.9663 159.005 27.9919C159.003 28.0194 159.002 28.0308 159.002 28.032V28.2312H146.962C147.163 30.2301 148.898 31.6685 150.993 31.6687C152.02 31.6686 152.801 31.4119 153.386 30.9871C153.971 30.5616 154.379 29.9557 154.643 29.2312L154.706 29.0544L154.887 29.1082L158.688 30.238L158.879 30.2947L158.823 30.4851C157.942 33.4804 155.192 35.9712 150.959 35.9714C146.232 35.9713 142.061 32.5666 142.061 26.7644C142.061 21.2787 146.121 17.6943 150.548 17.6941ZM169.48 17.6941C172.127 17.6943 174.264 18.5397 175.738 20.0935C177.211 21.6463 178.003 23.8844 178.003 26.6277C178.003 26.9589 177.985 27.2974 177.968 27.5603C177.959 27.692 177.951 27.8063 177.944 27.8904C177.941 27.9323 177.938 27.9663 177.937 27.9919C177.935 28.0194 177.934 28.0308 177.934 28.032V28.2312H165.894C166.095 30.2302 167.831 31.6687 169.926 31.6687C170.953 31.6685 171.732 31.4119 172.317 30.9871C172.903 30.5617 173.311 29.9558 173.574 29.2312L173.639 29.0544L173.818 29.1082L177.62 30.238L177.811 30.2947L177.755 30.4851C176.874 33.4803 174.125 35.971 169.892 35.9714C165.164 35.9714 160.992 32.5667 160.992 26.7644C160.992 21.2785 165.053 17.6941 169.48 17.6941ZM150.54 35.7634L150.959 35.7722C150.677 35.7722 150.398 35.7595 150.121 35.7351C150.26 35.7474 150.4 35.7573 150.54 35.7634ZM57.124 10.9226L61.4014 26.9822L66.5713 10.9128L66.6162 10.7751H71.8047L71.8486 10.9128L77.0508 27.0447L81.2627 10.9236L81.3018 10.7751H86.5469L86.4766 11.0271L79.7637 35.3113L79.7236 35.4578H74.5625L74.5176 35.3191L69.1582 18.6121L63.7998 35.3191L63.7559 35.4578H58.5264L58.4863 35.3123L51.7383 11.0281L51.668 10.7751H57.085L57.124 10.9226ZM131.037 31.5886L131.254 31.5935C131.12 31.5935 130.987 31.5866 130.856 31.575C130.916 31.5803 130.977 31.5857 131.037 31.5886ZM131.254 22.3054C130.141 22.3055 129.142 22.7227 128.42 23.489C127.698 24.2557 127.24 25.3856 127.24 26.8328C127.24 28.28 127.697 29.4196 128.42 30.1951C129.142 30.9701 130.142 31.3942 131.254 31.3943C132.367 31.3941 133.358 30.9776 134.071 30.2078C134.785 29.4373 135.233 28.2982 135.233 26.8328C135.233 25.3849 134.785 24.2544 134.071 23.488C133.358 22.7222 132.367 22.3056 131.254 22.3054ZM114.494 30.9783C114.498 30.9616 114.504 30.9453 114.508 30.9285L114.51 30.9187C114.506 30.9388 114.499 30.9584 114.494 30.9783ZM158.631 30.4294C158.604 30.5203 158.576 30.611 158.546 30.7009L158.632 30.4294L154.83 29.2986L158.631 30.4294ZM77.0703 27.7576V27.7556L71.6592 10.9744L77.0703 27.7576ZM139.91 27.2732C139.904 27.4252 139.895 27.576 139.884 27.7253C139.895 27.576 139.905 27.4252 139.911 27.2732L139.92 26.7986L139.91 27.2732ZM103.179 26.6277C103.179 26.7901 103.175 26.9546 103.169 27.1111L103.18 26.6277C103.18 26.4399 103.175 26.2547 103.168 26.072L103.179 26.6277ZM177.803 26.6277C177.803 26.79 177.799 26.9546 177.793 27.1111L177.804 26.6277C177.804 26.4399 177.799 26.2547 177.792 26.072L177.803 26.6277ZM86.6123 25.7791C86.5972 25.9396 86.5858 26.102 86.5781 26.2664L86.5791 26.2654C86.5868 26.101 86.5982 25.9386 86.6133 25.7781L86.6123 25.7791ZM94.9248 21.7917C92.7886 21.7918 91.5771 23.3184 91.3809 24.7156H98.4766C98.4078 23.9895 98.1347 23.2921 97.6172 22.7634C97.0529 22.1872 96.1818 21.7919 94.9248 21.7917ZM150.617 21.7917C148.481 21.7917 147.268 23.3183 147.072 24.7156H154.169C154.1 23.9894 153.826 23.2922 153.309 22.7634C152.744 22.1873 151.874 21.792 150.617 21.7917ZM169.549 21.7917C167.413 21.7917 166.2 23.3183 166.004 24.7156H173.101C173.032 23.9894 172.758 23.2922 172.24 22.7634C171.676 22.1874 170.806 21.7919 169.549 21.7917ZM105.867 24.4099C105.878 24.4649 105.89 24.5196 105.902 24.574C105.89 24.5196 105.878 24.4649 105.867 24.4099ZM105.817 24.1052C105.828 24.1883 105.841 24.2706 105.856 24.3523C105.842 24.2722 105.829 24.1915 105.818 24.1101L105.817 24.1052ZM118.686 22.7566L114.885 23.613L118.687 22.7566C118.674 22.645 118.655 22.5288 118.632 22.4089C118.655 22.5288 118.673 22.6451 118.686 22.7566ZM167.977 21.8943C167.806 21.9659 167.645 22.0498 167.493 22.1423C167.594 22.0807 167.7 22.0231 167.81 21.9705C167.864 21.9442 167.921 21.9191 167.978 21.8953L167.977 21.8943ZM149.208 21.8318C149.184 21.8406 149.16 21.8509 149.137 21.8601C149.16 21.8509 149.184 21.8406 149.208 21.8318ZM151.029 17.9031C151.08 17.9052 151.131 17.9091 151.182 17.9119C151.131 17.9091 151.081 17.9051 151.03 17.9031L150.548 17.8933L151.029 17.9031Z" fill="#6D6D6D"/>
<defs>
<clipPath id="clip0_532_1664">
<rect width="44.7154" height="44.7138" fill="white"/>
</clipPath>
</defs>
</svg>
