<svg width="80" height="80" viewBox="0 0 80 80" fill="none" xmlns="http://www.w3.org/2000/svg">
<g clip-path="url(#clip0_532_1525)">
<path d="M77.4265 65.4099C75.6203 71.7897 73.948 74.476 67.5707 76.5802C53.5675 81.214 26.6091 81.0573 12.6282 76.625C5.38134 74.3193 3.95427 70.6257 2.21501 63.5295C-1.0851 49.8744 -0.862121 24.758 3.99886 11.5729C5.8273 6.62576 7.0314 5.43933 12.2492 3.73804C17.1993 2.14867 28.0362 0.469766 33.2985 0.0892131C40.9245 -0.448037 68.2619 1.40995 73.5466 6.51383C74.3047 7.25255 75.4865 9.60302 75.9102 10.6551C80.9718 23.482 81.1725 52.1353 77.4265 65.4099Z" fill="#06D432"/>
<path d="M55.2361 62.7322C56.4912 61.1508 56.5625 58.5799 56.8763 56.587C58.2313 45.9105 59.9762 37.4302 60.675 26.5872C60.7844 25.1584 60.5134 21.1449 58.5166 23.0962C57.0617 24.6082 55.1505 28.2518 53.6101 31.2157C52.3835 33.426 50.6481 38.11 47.6006 35.8766C46.721 35.2108 46.0412 34.2166 45.4279 33.3011C43.7876 30.7811 42.2187 28.1963 40.6355 25.7133C36.6656 19.2399 32.8241 15.9661 28.1696 24.2522C26.8051 26.4531 25.065 26.8739 23.1918 24.9365C21.5563 23.3551 20.4628 21.3206 18.7274 20.0722C16.6831 18.6757 16.1553 20.4606 16.8352 22.5043C20.2679 30.7117 23.8146 44.7314 28.393 52.1018C29.225 53.4335 30.6038 54.7143 32.3629 54.0994C34.8637 53.3087 36.1759 49.7159 39.0475 49.7899C40.4073 49.961 41.5293 51.6302 42.5515 52.8186C45.1616 55.8518 47.5721 58.7233 50.3962 61.5993C51.6133 62.7784 53.7337 64.3783 55.1933 62.7738L55.2313 62.7322H55.2361Z" fill="#FEFFFB"/>
</g>
<defs>
<clipPath id="clip0_532_1525">
<rect width="80.0055" height="80.0025" fill="white"/>
</clipPath>
</defs>
</svg>
