<svg width="180" height="45" viewBox="0 0 180 45" fill="none" xmlns="http://www.w3.org/2000/svg">
<g clip-path="url(#clip0_532_958)">
<path d="M43.551 36.7919C42.5351 40.3805 41.5944 41.8914 38.0073 43.075C30.1308 45.6814 14.9672 45.5933 7.10315 43.1002C3.02691 41.8033 2.2242 39.7257 1.24591 35.7342C-0.61035 28.0535 -0.484928 13.9259 2.24929 6.50957C3.27776 3.72687 3.95504 3.05953 6.88993 2.10258C9.67432 1.20859 15.7699 0.264235 18.7298 0.0501808C23.0193 -0.252013 38.3961 0.793074 41.3686 3.66391C41.7951 4.07943 42.4598 5.40153 42.6981 5.99333C45.5452 13.2082 45.6581 29.3252 43.551 36.7919Z" fill="#06D432"/>
<path d="M31.0701 35.2858C31.7761 34.3963 31.8162 32.9502 31.9927 31.8292C32.7549 25.8239 33.7363 21.0539 34.1294 14.9549C34.1909 14.1512 34.0385 11.8937 32.9153 12.9912C32.097 13.8417 31.022 15.8912 30.1555 17.5583C29.4656 18.8015 28.4895 21.4362 26.7753 20.18C26.2805 19.8055 25.8981 19.2463 25.5531 18.7313C24.6305 17.3139 23.748 15.86 22.8575 14.4633C20.6245 10.8221 18.4637 8.98071 15.8457 13.6414C15.0782 14.8794 14.0994 15.1161 13.0457 14.0264C12.1258 13.1369 11.5107 11.9925 10.5346 11.2903C9.38472 10.5048 9.08788 11.5087 9.47029 12.6583C11.4011 17.2748 13.3961 25.1606 15.9714 29.3064C16.4394 30.0554 17.2149 30.7759 18.2043 30.43C19.611 29.9852 20.3491 27.9644 21.9643 28.006C22.7292 28.1022 23.3603 29.0411 23.9352 29.7095C25.4034 31.4157 26.7592 33.0308 28.3477 34.6486C29.0323 35.3118 30.225 36.2117 31.046 35.3092L31.0674 35.2858H31.0701Z" fill="#FEFFFB"/>
</g>
<path d="M132.995 17.9443C135.532 17.9443 137.546 18.9158 138.922 20.54C140.295 22.1609 141.02 24.4171 141.021 26.9697C141.02 29.5788 140.206 31.8603 138.769 33.4922C137.329 35.1259 135.275 36.0976 132.823 36.0977C130.724 36.0975 129.088 35.3656 128.129 34.376V42.2334H123.143V18.3232H127.991V19.9619C128.947 18.8225 130.732 17.9445 132.995 17.9443ZM95.4678 17.8066C98.1311 17.8066 100.283 18.6579 101.767 20.2217C103.249 21.7843 104.045 24.036 104.045 26.7969C104.045 27.1305 104.027 27.4716 104.01 27.7363C104.001 27.8686 103.993 27.9828 103.986 28.0674C103.983 28.1098 103.98 28.1449 103.979 28.1709C103.977 28.1959 103.977 28.2073 103.977 28.21V28.4111H91.8584C92.0609 30.4228 93.8076 31.8698 95.916 31.8701C96.9499 31.8701 97.7342 31.6122 98.3232 31.1846C98.9131 30.7563 99.3236 30.1466 99.5889 29.417L99.6533 29.2393L99.834 29.2939L103.66 30.4307L103.852 30.4883L103.796 30.6797C102.909 33.6943 100.142 36.2011 95.8818 36.2012C91.1245 36.2009 86.9258 32.7739 86.9258 26.9346C86.9261 21.4142 91.0126 17.8071 95.4678 17.8066ZM112.798 17.8066C115.256 17.8067 116.919 18.5899 117.995 19.625C119.066 20.656 119.541 21.9245 119.649 22.8789L119.67 23.0576L119.494 23.0977L115.668 23.959L115.455 24.0068L115.426 23.791C115.361 23.3241 115.16 22.7988 114.758 22.3926C114.36 21.9907 113.749 21.6895 112.832 21.6895C111.685 21.6897 110.862 22.3693 110.861 23.1777C110.861 23.5355 110.994 23.8188 111.225 24.0352C111.46 24.2554 111.808 24.4155 112.248 24.4971L112.254 24.498L114.664 25.0146H114.665C116.368 25.3657 117.667 26.0631 118.542 27.0049C119.418 27.9485 119.857 29.1273 119.857 30.416C119.857 31.8464 119.303 33.2956 118.172 34.3867C117.039 35.4792 115.341 36.2012 113.073 36.2012C110.476 36.201 108.709 35.3571 107.565 34.249C106.426 33.1451 105.916 31.7898 105.808 30.7822L105.788 30.6035L105.964 30.5654L109.894 29.7031L110.119 29.6543L110.137 29.8838C110.185 30.5115 110.442 31.1097 110.914 31.5498C111.384 31.9883 112.083 32.2841 113.039 32.2842C113.763 32.2842 114.274 32.0946 114.6 31.8223C114.923 31.5518 115.079 31.1869 115.079 30.7959C115.079 30.4673 114.969 30.1755 114.718 29.9316C114.461 29.6829 114.044 29.4701 113.411 29.3369H113.407L111.167 28.8193V28.8184C109.5 28.4495 108.269 27.7613 107.455 26.8438C106.64 25.9243 106.255 24.7892 106.255 23.5566C106.255 20.3921 109.056 17.8069 112.798 17.8066ZM151.517 17.8066C154.18 17.8067 156.331 18.6579 157.815 20.2217C159.298 21.7843 160.094 24.0362 160.094 26.7969C160.094 27.1304 160.076 27.4716 160.059 27.7363C160.05 27.8686 160.041 27.9828 160.034 28.0674C160.031 28.1098 160.029 28.1449 160.027 28.1709C160.026 28.1961 160.025 28.2074 160.024 28.21V28.4111H147.906C148.109 30.4229 149.856 31.8699 151.965 31.8701C152.999 31.8701 153.783 31.6121 154.372 31.1846C154.962 30.7563 155.371 30.1465 155.637 29.417L155.701 29.2393L155.883 29.2939L159.709 30.4307L159.9 30.4883L159.844 30.6797C158.957 33.6943 156.19 36.2012 151.93 36.2012C147.173 36.2007 142.974 32.7737 142.974 26.9346C142.974 21.414 147.061 17.8069 151.517 17.8066ZM170.569 17.8066C173.233 17.8066 175.384 18.6579 176.868 20.2217C178.351 21.7843 179.146 24.0361 179.146 26.7969C179.146 27.1305 179.129 27.4716 179.111 27.7363C179.103 27.8686 179.094 27.9828 179.088 28.0674C179.085 28.1098 179.082 28.1449 179.08 28.1709C179.078 28.1961 179.077 28.2074 179.077 28.21V28.4111H166.96C167.163 30.4228 168.909 31.8698 171.018 31.8701C172.051 31.8701 172.836 31.6122 173.425 31.1846C174.015 30.7563 174.424 30.1466 174.689 29.417L174.755 29.2393L174.936 29.2939L178.762 30.4307L178.953 30.4883L178.897 30.6797C178.011 33.6943 175.244 36.2011 170.983 36.2012C166.226 36.2009 162.027 32.7739 162.027 26.9346C162.028 21.4141 166.114 17.807 170.569 17.8066ZM112.604 35.9912C112.757 35.9975 112.914 36.001 113.073 36.001L112.605 35.9912C112.454 35.9849 112.305 35.9754 112.159 35.9629C112.304 35.9754 112.453 35.9849 112.604 35.9912ZM151.495 35.9912L151.588 35.9932C151.517 35.9906 151.446 35.9865 151.375 35.9824C151.415 35.9848 151.455 35.9894 151.495 35.9912ZM172.478 35.8896C172.24 35.926 171.997 35.954 171.748 35.9727L172.117 35.9385C172.239 35.9247 172.359 35.9079 172.478 35.8896ZM57.4941 10.9922L61.7988 27.1543L67.002 10.9824L67.0469 10.8438H72.2686L72.3135 10.9824L77.5479 27.2178L81.7871 10.9932L81.8262 10.8438H87.1055L87.0352 11.0977L80.2783 35.5371L80.2383 35.6846H75.0439L75 35.5449L69.6055 18.7324L64.2129 35.5449L64.168 35.6846H58.9062L58.8652 35.5371L52.0742 11.0977L52.0039 10.8438H57.4541L57.4941 10.9922ZM115.919 35.5371C115.939 35.53 115.959 35.5239 115.979 35.5166C116.006 35.5064 116.033 35.4939 116.06 35.4834C116.013 35.5014 115.966 35.52 115.919 35.5371ZM132.099 22.4473C130.979 22.4475 129.973 22.8674 129.246 23.6387C128.52 24.4102 128.06 25.5478 128.06 27.0039C128.06 28.4602 128.52 29.6072 129.247 30.3877C129.974 31.1676 130.98 31.5945 132.099 31.5947C133.219 31.5947 134.216 31.1752 134.934 30.4004C135.652 29.625 136.104 28.4791 136.104 27.0039C136.103 25.5465 135.652 24.4089 134.934 23.6377C134.216 22.8671 133.219 22.4473 132.099 22.4473ZM115.279 30.7959L115.271 30.957C115.277 30.9038 115.28 30.85 115.28 30.7959C115.28 30.7485 115.278 30.7015 115.273 30.6553L115.279 30.7959ZM99.7549 29.542C99.7619 29.5233 99.7705 29.5051 99.7773 29.4863L103.524 30.5996L99.7773 29.4854C99.7704 29.5044 99.762 29.523 99.7549 29.542ZM167.135 29.7588C167.147 29.7835 167.16 29.8076 167.173 29.832C167.153 29.7933 167.133 29.7543 167.114 29.7148L167.135 29.7588ZM148.082 29.7588C148.091 29.7765 148.1 29.7939 148.109 29.8115C148.093 29.7795 148.077 29.7473 148.062 29.7148L148.082 29.7588ZM91.7617 29.0195C91.7733 29.0648 91.7867 29.1097 91.7998 29.1543C91.7843 29.1017 91.7692 29.0487 91.7559 28.9951L91.7617 29.0195ZM147.705 28.4189C147.708 28.4503 147.713 28.4816 147.717 28.5127C147.705 28.4135 147.695 28.3128 147.69 28.2109L147.705 28.4189ZM136.275 27.6338C136.278 27.6085 136.281 27.5831 136.283 27.5576V27.5488C136.281 27.5773 136.278 27.6056 136.275 27.6338ZM87.2285 25.4639C87.2076 25.6105 87.1914 25.7591 87.1768 25.9092C87.2069 25.5981 87.2498 25.2942 87.3066 24.998V24.9971C87.2772 25.1506 87.251 25.3063 87.2285 25.4639ZM114.625 25.2119C114.729 25.2334 114.832 25.2562 114.934 25.2803L114.625 25.2109L112.212 24.6943L114.625 25.2119ZM147.827 24.7803L147.794 25.0732C147.807 24.8794 147.839 24.6818 147.89 24.4844C147.864 24.5832 147.843 24.6819 147.827 24.7803ZM155.377 25.0732H155.378C155.374 24.9679 155.365 24.8625 155.353 24.7578H155.352C155.364 24.8625 155.373 24.9679 155.377 25.0732ZM95.5371 21.9307C93.3875 21.9309 92.1672 23.467 91.9697 24.873H99.1123C99.043 24.1422 98.7672 23.4403 98.2461 22.9082C97.6781 22.3286 96.802 21.9307 95.5371 21.9307ZM151.585 21.9307C149.436 21.9311 148.216 23.4671 148.019 24.873H155.16C155.091 24.1423 154.816 23.4403 154.295 22.9082C153.727 22.3284 152.85 21.9307 151.585 21.9307ZM170.639 21.9307C168.489 21.9309 167.269 23.467 167.071 24.873H174.213C174.144 24.1423 173.869 23.4403 173.348 22.9082C172.78 22.3286 171.904 21.9307 170.639 21.9307ZM115.48 23.1826C115.503 23.2438 115.523 23.3052 115.54 23.3662C115.504 23.2399 115.458 23.1121 115.401 22.9863L115.48 23.1826ZM152.059 21.749H152.06C151.984 21.7428 151.906 21.7376 151.827 21.7344H151.826C151.905 21.7375 151.983 21.7428 152.059 21.749ZM133.572 18.1641C133.533 18.1616 133.494 18.1572 133.454 18.1553C133.43 18.1541 133.405 18.1543 133.38 18.1533C133.444 18.1559 133.509 18.1602 133.572 18.1641ZM132.524 18.1582H132.525C132.679 18.1496 132.836 18.1455 132.995 18.1455C133.045 18.1455 133.096 18.1467 133.146 18.1475C133.096 18.1467 133.045 18.1445 132.995 18.1445C132.836 18.1445 132.679 18.1495 132.524 18.1582Z" fill="#06D432"/>
<defs>
<clipPath id="clip0_532_958">
<rect width="45.0017" height="45" fill="white"/>
</clipPath>
</defs>
</svg>
