<svg width="67" height="67" viewBox="0 0 67 67" fill="none" xmlns="http://www.w3.org/2000/svg">
<g clip-path="url(#clip0_542_320)">
<path d="M21.1602 -0.000976562H23.805V7.93364H21.1602V-0.000976562Z" fill="#FEFFFB"/>
<path d="M26.4531 -0.000976562H29.098V2.64491H26.4531V-0.000976562Z" fill="#FEFFFB"/>
<path d="M31.7383 -0.000976562H42.3178V10.5785H44.9627V13.2234H34.3832V10.5785H39.6729V5.28877H37.027V2.64491H34.3832V5.28877H31.7383V-0.000976562Z" fill="#FEFFFB"/>
<path d="M0 -0.000976562V18.5131H18.5141V-0.000976562H0ZM15.8703 15.8693H2.64589V2.64491H15.8703V15.8693Z" fill="#FEFFFB"/>
<path d="M47.6094 -0.000976562V18.5131H66.1245V-0.000976562H47.6094ZM63.4796 15.8693H50.2543V2.64491H63.4796V15.8693Z" fill="#FEFFFB"/>
<path d="M5.28906 5.28906H13.2237V13.2237H5.28906V5.28906Z" fill="#FEFFFB"/>
<path d="M29.0938 5.28906H31.7396V7.93394H29.0938V5.28906Z" fill="#FEFFFB"/>
<path d="M52.8984 5.28906H60.8341V13.2237H52.8984V5.28906Z" fill="#FEFFFB"/>
<path d="M23.804 7.93359H29.0948V10.5785H26.4499V13.2233H29.0948V18.5131H31.7397V23.8028H29.0948V21.159H26.4499V15.8692H23.804V21.159H26.4499V23.8028H21.1602V13.2233H23.804V7.93359Z" fill="#FEFFFB"/>
<path d="M31.7383 15.8691H34.3832V18.514H31.7383V15.8691Z" fill="#FEFFFB"/>
<path d="M37.0312 15.8691H39.6771V18.514H37.0312V15.8691Z" fill="#FEFFFB"/>
<path d="M42.3203 15.8691H44.9662V18.514H42.3203V15.8691Z" fill="#FEFFFB"/>
<path d="M5.28906 21.1592H13.2237V23.803H15.8696V26.4489H13.2237V29.0938H10.5788V23.803H5.28906V21.1592Z" fill="#FEFFFB"/>
<path d="M15.8711 21.1592H18.516V23.8041H15.8711V21.1592Z" fill="#FEFFFB"/>
<path d="M34.3867 21.1592H37.0316V23.8041H34.3867V21.1592Z" fill="#FEFFFB"/>
<path d="M39.6719 21.1592H42.3167V26.4489H39.6719V21.1592Z" fill="#FEFFFB"/>
<path d="M44.9648 21.1592H52.8995V26.4489H50.2546V23.803H44.9648V21.1592Z" fill="#FEFFFB"/>
<path d="M58.1918 21.1592H66.1274V23.803H60.8376V26.4489H66.1274V34.3835H58.1918V31.7387H60.8376V29.0938H55.5469V26.4489H58.1918V21.1592Z" fill="#FEFFFB"/>
<path d="M18.517 23.8027H21.1629V29.0935H26.4526V23.8027H29.0975V26.4486H37.0311V29.0935H29.0975V31.7384H23.8067V34.3832H10.5824V37.0271H7.9375V29.0935H10.5824V31.7384H18.517V29.0935H15.8731V26.4486H18.517V23.8027Z" fill="#FEFFFB"/>
<path d="M5.28906 26.4482H7.93394V29.0931H5.28906V26.4482Z" fill="#FEFFFB"/>
<path d="M42.3203 26.4482H44.9662V29.0931H42.3203V26.4482Z" fill="#FEFFFB"/>
<path d="M0 29.0947H5.28975V34.3845H2.64589V44.964H0V29.0947Z" fill="#FEFFFB"/>
<path d="M37.0312 29.0947H39.6771V31.7406H37.0312V29.0947Z" fill="#FEFFFB"/>
<path d="M31.7383 31.7393H37.027V37.028H34.3832V34.3841H31.7383V31.7393Z" fill="#FEFFFB"/>
<path d="M42.3203 31.7393H44.9662V34.3841H42.3203V31.7393Z" fill="#FEFFFB"/>
<path d="M55.5469 34.3838H58.1928V37.0287H55.5469V34.3838Z" fill="#FEFFFB"/>
<path d="M5.28906 37.0283H7.93394V39.6742H13.2237V42.3191H10.5788V44.964H7.93394V42.3191H5.28906V37.0283Z" fill="#FEFFFB"/>
<path d="M15.8711 37.0283H18.516V39.6742H15.8711V37.0283Z" fill="#FEFFFB"/>
<path d="M58.1875 37.0283H66.1231V44.964H63.4783V39.6742H58.1875V37.0283Z" fill="#FEFFFB"/>
<path d="M55.5417 42.3175V37.0277H52.8968V34.3829H50.2519V31.738H52.8968V34.3829H55.5417V29.0931H50.2519V26.4482H47.607V29.0931H44.9622V31.738H47.607V37.0267H50.2519V42.3165H42.3173V39.6726H47.607V37.0267H42.3173V34.3818H39.6724V37.0267H37.0265V42.3165H34.3816V44.9624H31.7368V42.3175L34.3816 42.3165V37.0277H31.7368V39.6726H29.0929V37.0267H31.7378V34.3818H23.8022V37.0267H26.448V39.6726H18.5124V42.3175H13.2227V44.9624H21.1583V42.3175H29.0929V44.9624H21.1583V47.6072H26.448V50.2521H23.8022V52.897H21.1573V60.8326H23.8022V58.1867H26.448V52.897H29.0929V50.2521H31.7378V47.6072H37.0265V44.9624H39.6724V50.2521H42.3173V55.5419H39.6724V50.2521H34.3827V52.897H29.0929V58.1867H31.7378V55.5419H37.0265V58.1867H42.3163V60.8326H44.9622V58.1867H47.607V55.5419H52.8968V58.1867H58.1865V55.5419H55.5417V52.897H58.1865V50.2521H55.5417V47.6072H58.1865V44.9624H60.8324V42.3175H55.5417ZM52.8968 52.897H44.9622V44.9624H52.8968V52.897Z" fill="#FEFFFB"/>
<path d="M60.8359 44.9639H63.4808V47.6087H66.1257V50.2536H60.8359V44.9639Z" fill="#FEFFFB"/>
<path d="M47.6094 47.6084H50.2553V50.2543H47.6094V47.6084Z" fill="#FEFFFB"/>
<path d="M0 47.6084V66.1235H18.5141V47.6084H0ZM15.8703 63.4787H2.64589V50.2533H15.8703V63.4787Z" fill="#FEFFFB"/>
<path d="M5.28906 52.8984H13.2237V60.8341H5.28906V52.8984Z" fill="#FEFFFB"/>
<path d="M58.1875 52.8984H60.8334V55.5433H58.1875V52.8984Z" fill="#FEFFFB"/>
<path d="M63.4825 55.543H66.1274V66.1235H55.5469V63.4786H63.4825V55.543Z" fill="#FEFFFB"/>
<path d="M31.7383 58.1875H37.027V60.8334H31.7383V58.1875Z" fill="#FEFFFB"/>
<path d="M47.6097 58.1875H52.8995V60.8334H55.5443V63.4783H50.2546V66.1231H44.9648V63.4783H47.6097V58.1875Z" fill="#FEFFFB"/>
<path d="M58.1875 58.1875H60.8334V60.8334H58.1875V58.1875Z" fill="#FEFFFB"/>
<path d="M29.0938 60.833H31.7396V63.4789H29.0938V60.833Z" fill="#FEFFFB"/>
<path d="M37.0312 63.4785H42.321V66.1234H37.0312V63.4785Z" fill="#FEFFFB"/>
</g>
<defs>
<clipPath id="clip0_542_320">
<rect width="66.1218" height="66.1218" fill="white"/>
</clipPath>
</defs>
</svg>
