<svg width="284" height="281" viewBox="0 0 284 281" fill="none" xmlns="http://www.w3.org/2000/svg">
<path d="M222.714 0H247.22C267.139 0 283.267 14.7434 283.267 32.9229V527.437C283.267 545.63 267.124 560.36 247.22 560.36H36.0472C16.1276 560.36 0 545.616 0 527.437V32.9229C0 14.7297 16.1426 0 36.0472 0H222.714Z" fill="#FEFFFB"/>
<path d="M153.786 160.692C152.556 158.65 150.82 156.961 148.745 155.789C146.67 154.616 144.327 154 141.944 154C139.561 154 137.218 154.616 135.143 155.789C133.069 156.961 131.332 158.65 130.103 160.692L92.0159 222.897C90.7388 224.999 90.0437 227.404 90.002 229.863C89.9603 232.323 90.5734 234.749 91.7785 236.894C92.9836 239.038 94.7373 240.824 96.8599 242.067C98.9825 243.311 101.398 243.968 103.858 243.97H180.031C182.491 243.968 184.906 243.311 187.029 242.067C189.151 240.824 190.905 239.038 192.11 236.894C193.315 234.749 193.928 232.323 193.886 229.863C193.845 227.404 193.15 224.999 191.873 222.897L153.786 160.692Z" fill="#ED4040"/>
<path d="M141.941 212.649C140.984 212.637 140.069 212.251 139.392 211.574C138.715 210.897 138.329 209.982 138.316 209.024V187.274C138.316 186.313 138.698 185.391 139.378 184.711C140.058 184.031 140.98 183.649 141.941 183.649C142.903 183.649 143.825 184.031 144.505 184.711C145.184 185.391 145.566 186.313 145.566 187.274V209.024C145.554 209.982 145.168 210.897 144.491 211.574C143.814 212.251 142.899 212.637 141.941 212.649Z" fill="white"/>
<path d="M141.943 225.941C144.612 225.941 146.776 223.777 146.776 221.108C146.776 218.438 144.612 216.274 141.943 216.274C139.273 216.274 137.109 218.438 137.109 221.108C137.109 223.777 139.273 225.941 141.943 225.941Z" fill="white"/>
</svg>
