<svg width="68" height="101" viewBox="0 0 68 101" fill="none" xmlns="http://www.w3.org/2000/svg">
<g clip-path="url(#clip0_532_1039)">
<path d="M65.8079 87.7059C64.2728 93.1284 62.8514 95.4116 57.4311 97.2C45.5292 101.138 22.6162 101.005 10.7332 97.2381C4.57383 95.2784 3.36089 92.139 1.88263 86.1077C-0.922273 74.5017 -0.732752 53.1541 3.3988 41.9476C4.95287 37.7428 5.97628 36.7344 10.4111 35.2884C14.6184 33.9376 23.8291 32.5106 28.3018 32.1872C34.7834 31.7305 58.0186 33.3097 62.5103 37.6477C63.1547 38.2756 64.1591 40.2733 64.5192 41.1676C68.8213 52.0696 68.9919 76.4233 65.8079 87.7059Z" fill="#FEFFFB"/>
<path d="M46.9472 85.4301C48.014 84.086 48.0746 81.9009 48.3413 80.2071C49.493 71.1326 50.976 63.9249 51.57 54.709C51.663 53.4946 51.4326 50.0834 49.7355 51.7418C48.4989 53.027 46.8745 56.1238 45.5652 58.643C44.5227 60.5215 43.0477 64.5027 40.4575 62.6045C39.7099 62.0385 39.1321 61.1936 38.6108 60.4154C37.2167 58.2736 35.8832 56.0767 34.5376 53.9662C31.1634 48.4642 27.8983 45.6817 23.9423 52.7243C22.7825 54.595 21.3036 54.9527 19.7114 53.306C18.3214 51.9619 17.392 50.2327 15.917 49.1716C14.1794 47.9847 13.7309 49.5017 14.3087 51.2388C17.2263 58.2146 20.2408 70.1305 24.1322 76.395C24.8394 77.5268 26.0112 78.6154 27.5064 78.0927C29.6319 77.4207 30.7472 74.3671 33.1879 74.4299C34.3436 74.5753 35.2973 75.9941 36.1661 77.0041C38.3845 79.5822 40.4333 82.0228 42.8336 84.4672C43.868 85.4694 45.6703 86.8292 46.9109 85.4655L46.9432 85.4301H46.9472Z" fill="#06D432"/>
</g>
<path d="M52.8896 29.4128C52.8896 14.5099 43.9495 2.42871 32.9214 2.42871C21.8932 2.42871 12.9531 14.5099 12.9531 29.4128" stroke="#FEFFFB" stroke-width="4.85714" stroke-linecap="round"/>
<defs>
<clipPath id="clip0_532_1039">
<rect width="68" height="67.9975" fill="white" transform="translate(0 32.1113)"/>
</clipPath>
</defs>
</svg>
