<svg width="19" height="20" viewBox="0 0 19 20" fill="none" xmlns="http://www.w3.org/2000/svg">
<g clip-path="url(#clip0_532_1680)">
<path d="M19 10.495C18.9999 8.6795 18.4796 6.90206 17.5006 5.37311C16.5217 3.84416 15.1252 2.62773 13.4764 1.86783C11.8275 1.10793 9.99553 0.836396 8.1972 1.08537C6.39886 1.33434 4.70952 2.09339 3.32919 3.27266C1.94885 4.45192 0.935328 6.00202 0.408608 7.73942C-0.118111 9.47682 -0.135966 11.3288 0.357156 13.076C0.850279 14.8232 1.83373 16.3926 3.19107 17.5982C4.54841 18.8039 6.2228 19.5954 8.016 19.879V13.241H5.603V10.495H8.016V8.40199C8.016 6.02199 9.434 4.70599 11.604 4.70599C12.3173 4.71599 13.0263 4.77765 13.731 4.89099V7.22899H12.532C12.3278 7.20189 12.1201 7.2211 11.9243 7.28519C11.7284 7.34929 11.5496 7.45662 11.4009 7.59925C11.2522 7.74187 11.1376 7.91613 11.0654 8.1091C10.9932 8.30207 10.9654 8.5088 10.984 8.71399V10.495H13.617L13.195 13.241H10.98V19.879C13.2154 19.5264 15.2515 18.3874 16.7218 16.6671C18.1921 14.9467 19 12.758 19 10.495Z" fill="#121212"/>
</g>
<defs>
<clipPath id="clip0_532_1680">
<rect width="19" height="20" fill="white"/>
</clipPath>
</defs>
</svg>
