<svg width="18" height="19" viewBox="0 0 18 19" fill="none" xmlns="http://www.w3.org/2000/svg">
<g clip-path="url(#clip0_532_1684)">
<path fill-rule="evenodd" clip-rule="evenodd" d="M5.29 0.990918C6.25 0.940918 6.56 0.940918 9 0.940918C11.44 0.940918 11.75 0.940918 12.72 0.990918C13.4652 1.00682 14.2023 1.14883 14.9 1.41092C15.4956 1.64658 16.0353 2.00403 16.4848 2.46035C16.9342 2.91668 17.2834 3.46184 17.51 4.06092C17.772 4.75892 17.914 5.49592 17.93 6.24092C17.98 7.20092 17.98 7.51092 17.98 9.95092C17.98 11.4369 17.961 12.1179 17.947 12.6499C17.937 12.9899 17.93 13.2699 17.93 13.6599C17.9141 14.4051 17.7721 15.1422 17.51 15.8399C17.2788 16.437 16.9254 16.9793 16.4725 17.432C16.0196 17.8847 15.4772 18.2379 14.88 18.4689C14.1823 18.731 13.4452 18.873 12.7 18.8889C11.74 18.9389 11.43 18.9389 8.99 18.9389C7.502 18.9389 6.821 18.9199 6.29 18.9059C5.95 18.8959 5.67 18.8889 5.28 18.8889C4.53483 18.873 3.79774 18.731 3.1 18.4689C2.50171 18.2367 1.95864 17.8818 1.5057 17.4272C1.05275 16.9725 0.699962 16.4281 0.47 15.8289C0.20791 15.1312 0.0659019 14.3941 0.05 13.6489C0 12.6899 0 12.3799 0 9.93992C0 7.49992 0 7.18992 0.05 6.21992C0.0660144 5.47509 0.208021 4.73834 0.47 4.04092C0.702234 3.44263 1.05709 2.89956 1.51176 2.44662C1.96642 1.99367 2.51084 1.64088 3.11 1.41092C3.80774 1.14883 4.54483 1.00682 5.29 0.990918ZM12.64 2.61192C11.69 2.56192 11.4 2.56192 9 2.56192V2.58192C7.52 2.58192 6.843 2.60192 6.321 2.61592C6.0011 2.62605 5.68106 2.63139 5.361 2.63192C4.79073 2.63925 4.22591 2.7441 3.691 2.94192C3.30835 3.09266 2.96078 3.32047 2.66988 3.6112C2.37898 3.90192 2.15097 4.24936 2 4.63192C1.80218 5.16683 1.69733 5.73165 1.69 6.30192C1.64 7.25192 1.64 7.53192 1.64 9.94192C1.64 11.4219 1.658 12.0979 1.673 12.6199C1.683 12.9479 1.69 13.2149 1.69 13.5799C1.69733 14.1502 1.80218 14.715 2 15.2499C2.15086 15.6324 2.37872 15.9798 2.66944 16.2705C2.96016 16.5612 3.30753 16.7891 3.69 16.9399C4.22491 17.1377 4.78973 17.2426 5.36 17.2499C6.31 17.2999 6.59 17.2999 9 17.2999C10.48 17.2999 11.157 17.2819 11.679 17.2669C12.007 17.2569 12.273 17.2499 12.639 17.2499C13.2093 17.2426 13.7741 17.1377 14.309 16.9399C14.6917 16.7892 15.0392 16.5614 15.3301 16.2706C15.621 15.9799 15.849 15.6325 16 15.2499C16.1978 14.715 16.3027 14.1502 16.31 13.5799C16.36 12.6309 16.36 12.3509 16.36 9.94092C16.36 8.46092 16.342 7.78492 16.327 7.26292C16.3169 6.94268 16.3115 6.62231 16.311 6.30192C16.3037 5.73165 16.1988 5.16683 16.001 4.63192C15.8501 4.24945 15.6223 3.90208 15.3316 3.61136C15.0408 3.32063 14.6935 3.09277 14.311 2.94192C13.7773 2.73727 13.2114 2.62565 12.64 2.61192Z" fill="#121212"/>
<path fill-rule="evenodd" clip-rule="evenodd" d="M4.37891 9.93999C4.37891 8.71469 4.86565 7.53957 5.73207 6.67315C6.59849 5.80674 7.77361 5.31999 8.99891 5.31999C10.2242 5.31999 11.3993 5.80674 12.2657 6.67315C13.1322 7.53957 13.6189 8.71469 13.6189 9.93999C13.6189 11.1653 13.1322 12.3404 12.2657 13.2068C11.3993 14.0732 10.2242 14.56 8.99891 14.56C7.77361 14.56 6.59849 14.0732 5.73207 13.2068C4.86565 12.3404 4.37891 11.1653 4.37891 9.93999ZM5.99991 9.93999C5.99991 10.7356 6.31598 11.4987 6.87859 12.0613C7.4412 12.6239 8.20426 12.94 8.99991 12.94C9.79556 12.94 10.5586 12.6239 11.1212 12.0613C11.6838 11.4987 11.9999 10.7356 11.9999 9.93999C11.9999 9.14434 11.6838 8.38128 11.1212 7.81867C10.5586 7.25606 9.79556 6.93999 8.99991 6.93999C8.20426 6.93999 7.4412 7.25606 6.87859 7.81867C6.31598 8.38128 5.99991 9.14434 5.99991 9.93999ZM13.7989 6.22299C13.9407 6.22299 14.0812 6.19505 14.2122 6.14078C14.3432 6.0865 14.4623 6.00695 14.5626 5.90666C14.6629 5.80638 14.7424 5.68732 14.7967 5.55629C14.851 5.42525 14.8789 5.28482 14.8789 5.14299C14.8789 5.00116 14.851 4.86072 14.7967 4.72969C14.7424 4.59866 14.6629 4.4796 14.5626 4.37931C14.4623 4.27903 14.3432 4.19947 14.2122 4.1452C14.0812 4.09092 13.9407 4.06299 13.7989 4.06299C13.5125 4.06299 13.2378 4.17677 13.0352 4.37931C12.8327 4.58185 12.7189 4.85655 12.7189 5.14299C12.7189 5.42942 12.8327 5.70412 13.0352 5.90666C13.2378 6.1092 13.5125 6.22299 13.7989 6.22299Z" fill="#121212"/>
</g>
<defs>
<clipPath id="clip0_532_1684">
<rect width="18" height="19" fill="white"/>
</clipPath>
</defs>
</svg>
