<svg width="18" height="18" viewBox="0 0 18 18" fill="none" xmlns="http://www.w3.org/2000/svg">
<g clip-path="url(#clip0_532_1682)">
<path d="M16.2758 0.499985H0.76376C0.665383 0.497514 0.56753 0.515069 0.476146 0.551584C0.384763 0.588099 0.301757 0.642811 0.232172 0.712396C0.162586 0.781982 0.107874 0.864988 0.0713594 0.956371C0.0348445 1.04775 0.0172892 1.14561 0.0197602 1.24398V16.863C0.0197602 17.181 0.33876 17.5 0.76376 17.5H16.3828C16.4811 17.5023 16.5788 17.4847 16.6701 17.4481C16.7613 17.4115 16.8442 17.3568 16.9137 17.2872C16.9832 17.2176 17.0378 17.1347 17.0742 17.0434C17.1107 16.952 17.1282 16.8543 17.1258 16.756V1.24398C17.0198 0.818985 16.7008 0.499985 16.2758 0.499985ZM5.01376 14.95H2.56976V6.87498H5.11976V14.95H5.01376ZM3.84476 5.81298C2.99476 5.81298 2.35776 5.06898 2.35776 4.32498C2.35776 3.47498 2.99476 2.83698 3.84476 2.83698C4.69476 2.83698 5.33276 3.47498 5.33276 4.32498C5.22576 5.06898 4.58876 5.81198 3.84476 5.81198M14.4698 14.95H11.9198V11.019C11.9198 10.062 11.9198 8.89398 10.6448 8.89398C9.36976 8.89398 9.15776 9.95599 9.15776 11.019V15.056H6.60776V6.87498H9.04976V7.93798C9.36976 7.29998 10.2198 6.66298 11.3898 6.66298C13.9398 6.66298 14.3648 8.36298 14.3648 10.488V14.95H14.4698Z" fill="#121212"/>
</g>
<defs>
<clipPath id="clip0_532_1682">
<rect width="18" height="18" fill="white"/>
</clipPath>
</defs>
</svg>
