<svg width="20" height="21" viewBox="0 0 20 21" fill="none" xmlns="http://www.w3.org/2000/svg">
<path d="M8.30381 8.65791V11.7279C7.93292 11.6274 7.54385 11.6137 7.16681 11.6879C6.78749 11.7632 6.43081 11.9254 6.12481 12.1619C5.81382 12.402 5.56032 12.7084 5.38281 13.0589C5.20221 13.4139 5.10087 13.8039 5.08581 14.2019C5.06452 14.545 5.11422 14.8889 5.23181 15.2119C5.34881 15.5349 5.53181 15.8269 5.76581 16.0699C5.99981 16.3129 6.28281 16.4999 6.59381 16.6199C6.90481 16.7399 7.23481 16.7899 7.56481 16.7649C9.39681 16.7649 10.0448 15.4249 10.0448 14.1679V2.00391H12.9608C13.4568 5.21591 14.9998 5.95991 17.0658 6.30591V9.38291C17.0658 9.38291 14.6138 9.20191 13.0438 7.96891V14.0489C13.0418 16.7989 11.4748 19.8709 7.58681 19.8709C3.97881 19.8709 2.13281 16.6879 2.13281 14.0209C2.15578 13.2328 2.33919 12.4577 2.67181 11.7429C3.00095 11.0371 3.47368 10.4077 4.05981 9.89491C4.63796 9.39083 5.31863 9.01826 6.05481 8.80291C6.78487 8.59075 7.55256 8.54125 8.30381 8.65791Z" fill="#121212"/>
</svg>
