<svg width="18" height="13" viewBox="0 0 18 13" fill="none" xmlns="http://www.w3.org/2000/svg">
<g clip-path="url(#clip0_532_1676)">
<path fill-rule="evenodd" clip-rule="evenodd" d="M17.1 1.83701C17.4821 2.3286 17.7302 2.91089 17.82 3.52701C17.932 4.44368 17.992 5.36368 18 6.28701V7.57701C17.992 8.50301 17.932 9.42634 17.82 10.347C17.73 10.9628 17.4819 11.5447 17.1 12.036C16.6125 12.4947 15.9694 12.752 15.3 12.756C12.78 12.936 9 12.936 9 12.936C9 12.936 4.32 12.936 2.9 12.766C2.16881 12.7622 1.46173 12.5041 0.9 12.036C0.516308 11.5416 0.268148 10.9556 0.18 10.336C0.0691151 9.42004 0.00902315 8.49863 0 7.57601L0 6.28601C0.008 5.36001 0.068 4.43701 0.18 3.51701C0.269817 2.90089 0.517893 2.3186 0.9 1.82701C1.38752 1.36828 2.0306 1.11105 2.7 1.10701C5.22 0.937012 9 0.937012 9 0.937012C9 0.937012 12.78 0.937012 15.3 1.11701C15.9694 1.12105 16.6125 1.37828 17.1 1.83701ZM13 6.93701L7 3.93701V9.93701L13 6.93701Z" fill="#121212"/>
</g>
<defs>
<clipPath id="clip0_532_1676">
<rect width="18" height="13" fill="white"/>
</clipPath>
</defs>
</svg>
